<svg xmlns="http://www.w3.org/2000/svg" width="38.666" height="44" viewBox="0 0 403 458" shape-rendering="geometricPrecision" text-rendering="geometricPrecision" image-rendering="optimizeQuality" fill-rule="evenodd" clip-rule="evenodd"><defs><style><![CDATA[
    .fil0 {fill:none;fill-rule:nonzero}
   ]]></style></defs><g id="Layer_x0020_1"><path class="fil0" d="M368 146c-15 0-28 13-28 28v111c0 15 12 28 28 28 15 0 28-13 28-28V174c0-15-12-28-28-28zm-333 0c-15 0-28 13-28 28v111c0 15 12 28 28 28 15 0 28-13 28-28V174c0-15-12-28-28-28zm42 181c0 23 19 42 42 42h14v56c0 15 12 28 28 28 15 0 28-13 28-28v-56h28v56c0 15 12 28 28 28 15 0 28-13 28-28v-56h14c23 0 42-19 42-42V174H79v153zM253 46l18-34c1-2 0-4-1-5-2-1-4 0-5 1l-18 34c-14-5-29-8-45-8s-31 3-45 8L139 8c-1-2-3-2-5-1s-2 3-1 5l18 34c-39 18-68 55-73 100h248c-5-45-33-82-73-100zm-107 79c-11 0-20-9-20-20s9-20 20-20 20 9 20 20-9 20-20 20zm111 0c-11 0-20-9-20-20s9-20 20-20 20 9 20 20-9 20-20 20z" id="_161260352"/></g></svg>