<?xml version="1.0" encoding="utf-8"?>
<svg xmlns="http://www.w3.org/2000/svg">
<symbol id="github" viewBox="0 0 438.549 438.549"><path d="M409.132 114.573c-19.608-33.596-46.205-60.194-79.798-79.8C295.736 15.166 259.057 5.365 219.27 5.365c-39.78 0-76.47 9.804-110.062 29.408-33.596 19.605-60.192 46.204-79.8 79.8C9.803 148.168 0 184.853 0 224.63c0 47.78 13.94 90.745 41.827 128.906 27.884 38.164 63.906 64.572 108.063 79.227 5.14.954 8.945.283 11.42-1.996 2.474-2.282 3.71-5.14 3.71-8.562 0-.57-.05-5.708-.144-15.417-.098-9.71-.144-18.18-.144-25.406l-6.567 1.136c-4.187.767-9.47 1.092-15.846 1-6.375-.09-12.992-.757-19.843-2-6.854-1.23-13.23-4.085-19.13-8.558-5.898-4.473-10.085-10.328-12.56-17.556l-2.855-6.57c-1.903-4.374-4.9-9.233-8.992-14.56-4.093-5.33-8.232-8.944-12.42-10.847l-1.998-1.43c-1.332-.952-2.568-2.1-3.71-3.43-1.143-1.33-1.998-2.663-2.57-3.997-.57-1.335-.097-2.43 1.428-3.29 1.525-.858 4.28-1.275 8.28-1.275l5.708.853c3.807.763 8.516 3.042 14.133 6.85 5.615 3.807 10.23 8.755 13.847 14.843 4.38 7.807 9.657 13.755 15.846 17.848 6.184 4.093 12.42 6.136 18.7 6.136 6.28 0 11.703-.476 16.273-1.423 4.565-.95 8.848-2.382 12.847-4.284 1.713-12.758 6.377-22.56 13.988-29.41-10.847-1.14-20.6-2.857-29.263-5.14-8.658-2.286-17.605-5.996-26.835-11.14-9.235-5.137-16.896-11.516-22.985-19.126-6.09-7.614-11.088-17.61-14.987-29.98-3.9-12.373-5.852-26.647-5.852-42.825 0-23.035 7.52-42.637 22.557-58.817-7.044-17.318-6.38-36.732 1.997-58.24 5.52-1.715 13.706-.428 24.554 3.853 10.85 4.284 18.794 7.953 23.84 10.995 5.046 3.04 9.09 5.618 12.135 7.708 17.706-4.947 35.977-7.42 54.82-7.42s37.116 2.473 54.822 7.42l10.85-6.85c7.418-4.57 16.18-8.757 26.26-12.564 10.09-3.806 17.803-4.854 23.135-3.14 8.562 21.51 9.325 40.923 2.28 58.24 15.035 16.18 22.558 35.788 22.558 58.818 0 16.178-1.958 30.497-5.853 42.966-3.9 12.47-8.94 22.457-15.125 29.98-6.19 7.52-13.9 13.85-23.13 18.985-9.233 5.14-18.183 8.85-26.84 11.135-8.663 2.286-18.416 4.004-29.264 5.146 9.894 8.563 14.842 22.078 14.842 40.54v60.237c0 3.422 1.19 6.28 3.572 8.562 2.38 2.278 6.136 2.95 11.276 1.994 44.163-14.653 80.185-41.062 108.068-79.226 27.88-38.16 41.826-81.126 41.826-128.906-.01-39.77-9.818-76.454-29.414-110.05z"/>
</symbol>
<symbol id="linkedin" viewBox="0 0 438.536 438.536"><path d="M414.41 24.123C398.333 8.043 378.963 0 356.315 0H82.228C59.58 0 40.21 8.042 24.126 24.123 8.046 40.207.003 59.576.003 82.225V356.31c0 22.646 8.042 42.017 24.123 58.1 16.084 16.085 35.454 24.127 58.102 24.127h274.084c22.648 0 42.018-8.042 58.095-24.126 16.084-16.083 24.126-35.453 24.126-58.1V82.224c0-22.65-8.043-42.02-24.123-58.102zM133.618 367.157H67.666v-198.14h65.952v198.14zm-5.992-234.825c-6.85 6.567-15.893 9.85-27.124 9.85h-.288c-10.848 0-19.648-3.283-26.407-9.85-6.76-6.567-10.138-14.703-10.138-24.41 0-9.897 3.475-18.083 10.42-24.556 6.95-6.47 15.942-9.708 26.98-9.708 11.04 0 19.89 3.237 26.553 9.708 6.66 6.473 10.088 14.66 10.277 24.556 0 9.703-3.423 17.84-10.274 24.41zm243.247 234.825H304.92v-105.92c0-29.88-11.035-44.823-33.115-44.823-8.374 0-15.42 2.33-21.128 6.995-5.715 4.66-9.996 10.323-12.847 16.99-1.335 3.422-2 8.75-2 15.98v110.776h-65.95c.57-119.53.57-185.58 0-198.142h65.95v27.974c13.868-21.68 33.56-32.544 59.102-32.544 22.84 0 41.21 7.52 55.104 22.554 13.895 15.037 20.84 37.214 20.84 66.52v113.64h-.003z"/>
</symbol>
<symbol id="location" viewBox="0 0 54.757 54.757"><path d="M40.94 5.617C37.318 1.995 32.502 0 27.38 0c-5.123 0-9.938 1.995-13.56 5.617C7.117 12.32 6.284 24.93 12.016 32.57L27.38 54.756 42.72 32.6c5.756-7.67 4.923-20.28-1.78-26.983zM27.557 26c-3.86 0-7-3.14-7-7s3.14-7 7-7 7 3.14 7 7-3.14 7-7 7z"/>
</symbol>
<symbol id="message" viewBox="0 0 14 14"><g><path d="M7 9L5.268 7.484.316 11.73c.18.166.423.27.69.27h11.987c.267 0 .51-.104.688-.27L8.733 7.483 7 9z"/><path d="M13.684 2.27c-.18-.167-.422-.27-.69-.27H1.006c-.267 0-.51.104-.69.273L7 8l6.684-5.73zM0 2.878v8.308L4.833 7.08M9.167 7.08L14 11.185v-8.31"/></g>
</symbol>
<symbol id="phone" viewBox="0 0 578.106 578.106"><path d="M577.83 456.128c1.225 9.385-1.635 17.545-8.568 24.48l-81.396 80.78c-3.672 4.08-8.465 7.552-14.38 10.405-5.917 2.857-11.73 4.693-17.44 5.508-.408 0-1.635.106-3.676.31-2.037.203-4.69.307-7.953.307-7.754 0-20.3-1.326-37.64-3.98s-38.556-9.18-63.646-19.583c-25.095-10.404-53.552-26.012-85.375-46.818-31.823-20.805-65.688-49.367-101.592-85.68-28.56-28.152-52.224-55.08-70.992-80.783-18.767-25.705-33.863-49.47-45.287-71.3-11.425-21.827-19.993-41.615-25.705-59.363S4.59 177.362 2.55 164.51-.306 141.56.102 134.216c.408-7.344.612-11.424.612-12.24.816-5.712 2.652-11.526 5.508-17.442s6.324-10.71 10.404-14.382L98.022 8.756c5.712-5.712 12.24-8.568 19.584-8.568 5.304 0 9.996 1.53 14.076 4.59s7.548 6.834 10.404 11.322l65.484 124.236c3.672 6.528 4.692 13.668 3.06 21.42-1.632 7.752-5.1 14.28-10.404 19.584l-29.988 29.988c-.816.816-1.53 2.142-2.142 3.978s-.918 3.366-.918 4.59c1.632 8.568 5.304 18.36 11.016 29.376 4.896 9.792 12.444 21.726 22.644 35.802s24.684 30.293 43.452 48.653c18.36 18.77 34.68 33.354 48.96 43.76 14.277 10.4 26.215 18.053 35.803 22.95 9.588 4.895 16.932 7.853 22.03 8.87l7.65 1.53c.815 0 2.144-.306 3.978-.917 1.837-.613 3.163-1.326 3.98-2.143l34.883-35.496c7.348-6.526 15.912-9.79 25.705-9.79 6.938 0 12.443 1.223 16.523 3.672h.612l118.115 69.768c8.57 5.308 13.67 12.038 15.303 20.198z"/>
</symbol>
<symbol id="skype" viewBox="0 0 512 512"><path d="M487.654 288.97c1.406-10.4 2.215-20.973 2.215-31.736 0-129.153-105.27-233.872-235.103-233.872-12.904 0-25.555 1.06-37.866 3.08-22.07-14.384-48.34-22.767-76.61-22.767C62.765 3.675 0 66.483 0 143.98c0 28.2 8.3 54.395 22.59 76.39-1.925 12.017-2.91 24.323-2.91 36.86 0 129.175 105.218 233.88 235.086 233.88 14.657 0 28.927-1.428 42.796-3.934 21.55 13.37 46.934 21.148 74.145 21.148C449.21 508.327 512 445.504 512 368.014c-.004-29.294-8.96-56.53-24.346-79.044zM276.74 429.597c-74.705 3.894-109.664-12.637-141.69-42.69-35.764-33.566-21.397-71.855 7.74-73.802 29.123-1.942 46.608 33.015 62.15 42.736 15.525 9.69 74.595 31.76 105.794-3.907 33.977-38.828-22.594-58.92-64.06-65.002-59.203-8.765-133.95-40.79-128.135-103.906 5.815-63.074 53.58-95.414 103.85-99.976 64.076-5.817 105.79 9.707 138.785 37.86 38.148 32.53 17.508 68.894-6.8 71.82-24.212 2.91-51.403-53.504-104.79-54.352-55.028-.864-92.218 57.26-24.287 73.784 67.967 16.505 140.75 23.286 166.96 85.417 26.232 62.137-40.75 128.125-115.518 132.02z"/>
</symbol>
<symbol id="www" viewBox="0 0 32 32"><g><path d="M6.5 6.25c.44.334.893.653 1.362.938-.24.576-.45 1.184-.64 1.812h1.926c.11-.322.215-.65.34-.955.893.41 1.824.72 2.78.955h7.47c.967-.235 1.912-.554 2.812-.972.125.31.23.644.343.972h1.89c-.188-.63-.4-1.235-.64-1.812.47-.285.924-.604 1.36-.94.84.82 1.572 1.744 2.18 2.752h2.687c-2.604-5.318-8.057-9-14.368-9C9.69 0 4.238 3.682 1.635 9H4.32c.61-1.008 1.34-1.935 2.18-2.75zm17.61-1.177c-.247.176-.494.35-.75.51-.32-.588-.667-1.145-1.042-1.647.632.33 1.226.715 1.79 1.137zm-2.316 1.35c-.808.37-1.64.67-2.496.88-.24-1.73-.584-3.397-1.075-4.673 1.382.7 2.606 2.025 3.57 3.792zM15.82 2.378c.06-.002.12-.01.182-.01s.12.008.182.01c.438.716.965 2.506 1.354 5.228-.51.06-1.02.098-1.535.098-.517 0-1.028-.038-1.535-.098.387-2.722.914-4.512 1.352-5.23zm-2.05.278c-.484 1.272-.826 2.927-1.064 4.645-.843-.206-1.66-.5-2.453-.86.96-1.75 2.168-3.077 3.518-3.785zM9.685 3.936c-.374.502-.72 1.06-1.042 1.646-.256-.16-.503-.332-.75-.508.567-.423 1.16-.808 1.792-1.138zM25.503 25.752c-.438-.336-.894-.654-1.36-.94.237-.575.45-1.183.64-1.812h-1.89c-.11.328-.216.66-.34.97-.902-.417-1.85-.733-2.814-.97h-7.47c-.956.234-1.886.547-2.78.955-.126-.307-.23-.635-.34-.955H7.222c.19.63.4 1.236.64 1.812-.47.285-.92.604-1.36.938-.84-.816-1.572-1.742-2.178-2.75H1.638c2.603 5.316 8.054 9 14.366 9 6.312 0 11.764-3.684 14.367-9h-2.687c-.608 1.008-1.34 1.934-2.18 2.752zm-17.61 1.176c.246-.176.494-.35.75-.508.322.586.667 1.143 1.04 1.645-.63-.33-1.224-.715-1.79-1.137zm2.358-1.37c.793-.355 1.61-.652 2.454-.857.238 1.72.58 3.37 1.065 4.646-1.35-.71-2.556-2.04-3.52-3.787zm5.934 4.063c-.06.003-.12.01-.182.01s-.12-.007-.182-.01c-.438-.716-.966-2.507-1.354-5.228.507-.06 1.02-.1 1.535-.1.518 0 1.03.04 1.537.1-.39 2.72-.915 4.512-1.353 5.23zm2.04-.25c.49-1.276.835-2.944 1.074-4.673.856.21 1.688.51 2.496.88-.965 1.77-2.19 3.095-3.57 3.792zm4.094-1.306c.375-.504.722-1.062 1.04-1.646.258.16.505.334.75.51-.564.422-1.158.806-1.79 1.136zM4.795 19.18l.637-2.236c.17-.596.3-1.183.416-1.977h.026c.13.78.247 1.354.403 1.977l.598 2.236h1.86l1.95-6.355H8.747l-.546 2.52c-.143.73-.273 1.444-.364 2.172h-.026c-.13-.73-.3-1.44-.468-2.158l-.637-2.535h-1.56l-.676 2.612c-.155.623-.337 1.353-.467 2.08h-.026c-.104-.73-.234-1.43-.364-2.094l-.507-2.6H1.09l1.846 6.356h1.86zM18.314 15.344c-.145.73-.272 1.443-.362 2.172h-.027c-.13-.73-.3-1.442-.467-2.16l-.64-2.533h-1.56l-.676 2.612c-.156.624-.338 1.353-.468 2.08h-.026c-.104-.728-.234-1.43-.364-2.094l-.507-2.6h-2.015l1.846 6.357h1.86l.636-2.235c.17-.6.3-1.184.416-1.978h.026c.13.78.248 1.354.404 1.978l.598 2.235h1.86l1.946-6.357h-1.938l-.542 2.524zM28.43 15.344c-.144.73-.273 1.443-.363 2.172h-.025c-.13-.73-.3-1.442-.47-2.16l-.636-2.533h-1.562l-.677 2.612c-.155.624-.338 1.353-.47 2.08h-.023c-.104-.728-.233-1.43-.363-2.094l-.507-2.6h-2.017l1.85 6.357h1.855l.64-2.235c.17-.6.3-1.184.417-1.978h.024c.13.78.247 1.354.403 1.978l.598 2.235h1.86l1.95-6.357h-1.94l-.54 2.524z"/></g>
</symbol></svg>