<?xml version="1.0" encoding="utf-8"?>
<svg xmlns="http://www.w3.org/2000/svg">
<symbol id="001-google-plus" viewBox="0 0 612 612"><g fill="#E44C41"><path d="M296.07 247.387c0-31.295-18.695-80.033-54.803-80.033-11.294 0-23.48 5.647-30.46 14.382-7.4 9.124-9.57 20.863-9.57 32.186 0 29.125 16.97 77.418 54.384 77.418 10.878 0 22.617-5.23 29.6-12.185 9.987-10.042 10.85-23.95 10.85-31.768z"/><path d="M612 306C612 137.004 474.995 0 306 0 137.004 0 0 137.004 0 306c0 168.995 137.004 306 306 306 168.995 0 306-137.005 306-306zm-211.836-58.835H423.7v47.068h47.067v23.535H423.7v47.068h-23.536v-47.068h-47.068v-23.535h47.068v-47.068zm-258.93 175.087c0-15.66 7.816-37.832 33.492-53.077 26.956-16.523 63.51-18.693 83.065-20-6.09-7.846-13.046-16.107-13.046-29.57 0-7.4 2.17-11.74 4.34-16.97-4.785.416-9.57.862-13.937.862-46.095 0-72.188-34.383-72.188-68.294 0-20 9.124-42.2 27.845-58.28C215.62 156.48 245.19 153 268.668 153h89.603l-27.845 15.634H303.47c9.985 8.262 30.877 25.676 30.877 58.724 0 32.186-18.276 47.402-36.525 61.756-5.647 5.647-12.184 11.74-12.184 21.31s6.537 14.8 11.294 18.693l15.662 12.184c19.14 16.08 36.525 30.88 36.525 60.923 0 40.865-39.586 82.203-114.39 82.203-63.036.028-93.497-29.988-93.497-62.174z"/><path d="M272.59 361.775c-3.477-.417-5.647-.417-9.987-.417-3.922 0-27.4.862-45.677 6.982-9.57 3.477-37.416 13.91-37.416 44.787s30.016 53.05 76.556 53.05c41.755 0 63.926-20.002 63.926-46.958 0-22.2-14.326-33.938-47.402-57.445z"/></g>
</symbol>
<symbol id="002-facebook-logo-button" viewBox="0 0 49.652 49.652"><path d="M24.826 0C11.136 0 0 11.137 0 24.826c0 13.688 11.137 24.826 24.826 24.826 13.688 0 24.826-11.138 24.826-24.826C49.652 11.136 38.516 0 24.826 0zM31 25.7h-4.04v14.396h-5.984V25.7H18.13v-5.088h2.846v-3.29c0-2.358 1.12-6.04 6.04-6.04l4.435.016v4.94h-3.218c-.524 0-1.27.26-1.27 1.385v2.99h4.56L31 25.7z" fill="#3B5997"/>
</symbol>
<symbol id="003-twitter-1" viewBox="0 0 486.392 486.392"><path d="M243.196 0C108.89 0 0 108.89 0 243.196s108.89 243.196 243.196 243.196 243.196-108.89 243.196-243.196C486.392 108.86 377.502 0 243.196 0zm120.99 188.598l.182 7.752c0 79.16-60.22 170.36-170.36 170.36-33.803 0-65.267-9.91-91.775-26.905 4.682.547 9.454.85 14.288.85 28.06 0 53.87-9.575 74.358-25.626-26.204-.487-48.305-17.815-55.935-41.587 3.678.7 7.387 1.034 11.278 1.034 5.473 0 10.762-.7 15.778-2.067-27.39-5.533-48.03-29.7-48.03-58.7v-.76c8.085 4.498 17.296 7.173 27.115 7.508-16.05-10.73-26.63-29.062-26.63-49.825 0-10.974 2.95-21.25 8.086-30.095 29.517 36.236 73.657 60.07 123.42 62.562-1.033-4.378-1.55-8.968-1.55-13.65 0-33.043 26.813-59.856 59.888-59.856 17.206 0 32.77 7.265 43.714 18.908 13.62-2.706 26.448-7.69 38.03-14.53-4.47 13.983-13.953 25.717-26.326 33.134 12.07-1.43 23.65-4.682 34.382-9.424-8.025 11.977-18.21 22.526-29.912 30.916z" fill="#3EC2F3"/>
</symbol>
<symbol id="004-twitter" viewBox="0 0 512.002 512.002"><path d="M512.002 97.21c-18.84 8.355-39.082 14.002-60.33 16.54 21.686-13 38.342-33.584 46.186-58.114-20.3 12.04-42.777 20.78-66.705 25.49-19.16-20.415-46.46-33.17-76.674-33.17-58.012 0-105.043 47.03-105.043 105.04 0 8.232.93 16.25 2.72 23.938-87.3-4.382-164.7-46.2-216.51-109.753-9.04 15.515-14.222 33.56-14.222 52.81 0 36.444 18.544 68.596 46.73 87.433-17.22-.546-33.416-5.27-47.577-13.14-.01.44-.01.88-.01 1.322 0 50.894 36.21 93.348 84.26 103-8.812 2.4-18.093 3.687-27.673 3.687-6.77 0-13.35-.66-19.764-1.888 13.37 41.73 52.16 72.104 98.127 72.95-35.95 28.175-81.243 44.966-130.458 44.966-8.48 0-16.84-.496-25.06-1.47 46.487 29.806 101.702 47.196 161.022 47.196 193.21 0 298.868-160.062 298.868-298.872 0-4.554-.104-9.084-.305-13.59 20.526-14.81 38.335-33.31 52.417-54.373z" fill="#FFF"/>
</symbol>
<symbol id="005-facebook-logo" viewBox="0 0 96.124 96.123"><path d="M72.09.02L59.623 0C45.62 0 36.57 9.285 36.57 23.656v10.907H24.037c-1.083 0-1.96.878-1.96 1.96v15.804c0 1.083.878 1.96 1.96 1.96H36.57v39.876c0 1.083.877 1.96 1.96 1.96h16.352c1.083 0 1.96-.878 1.96-1.96V54.287h14.654c1.083 0 1.96-.877 1.96-1.96l.006-15.803c0-.52-.207-1.018-.574-1.386-.367-.368-.867-.575-1.387-.575H56.843v-9.246c0-4.444 1.06-6.7 6.848-6.7l8.397-.003c1.082 0 1.96-.878 1.96-1.96V1.98c0-1.08-.877-1.958-1.958-1.96z" fill="#FFF"/>
</symbol>
<symbol id="006-google-plus-logo" viewBox="0 0 96.828 96.827"><g fill="#FFF"><path d="M62.617 0H39.525C29.235 0 22.112 2.256 15.7 7.552c-5.04 4.35-8.05 10.672-8.05 16.912 0 9.614 7.33 19.83 20.913 19.83 1.306 0 2.752-.133 4.028-.252l-.187.457c-.546 1.307-1.063 2.54-1.063 4.467 0 3.75 1.81 6.063 3.558 8.298l.22.283-.39.027c-5.61.384-16.05 1.1-23.676 5.787-9.007 5.355-9.707 13.145-9.707 15.404 0 8.988 8.376 18.06 27.09 18.06 21.76 0 33.146-12.005 33.146-23.863.003-8.77-5.14-13.1-10.6-17.698l-4.604-3.582c-1.423-1.18-3.195-2.646-3.195-5.364 0-2.673 1.773-4.437 3.337-5.993l.163-.165c4.973-3.917 10.61-8.358 10.61-17.964 0-9.658-6.036-14.65-8.938-17.048h7.663c.094 0 .188-.026.266-.077l6.602-4.15c.188-.12.276-.348.214-.562-.06-.213-.257-.36-.48-.36zM34.614 91.535c-13.264 0-22.176-6.195-22.176-15.416 0-6.022 3.645-10.397 10.824-12.998 5.75-1.935 13.17-2.03 13.244-2.03 1.257 0 1.89 0 2.893.125C48.68 67.822 53.14 71.29 53.14 77.895c0 8.414-7.1 13.64-18.528 13.64zm-.125-50.78c-11.133 0-15.753-14.632-15.753-22.467 0-3.984.906-7.042 2.77-9.35 2.023-2.532 5.487-4.167 8.825-4.167 10.22 0 15.873 13.74 15.873 23.234 0 1.498 0 6.055-3.148 9.22-2.117 2.113-5.56 3.532-8.568 3.532zM94.982 45.223H82.814V33.098c0-.276-.225-.5-.5-.5H77.08c-.276 0-.5.224-.5.5v12.125H64.473c-.276 0-.5.224-.5.5v5.304c0 .275.224.5.5.5H76.58V63.73c0 .275.224.5.5.5h5.234c.275 0 .5-.225.5-.5V51.525h12.168c.276 0 .5-.223.5-.5v-5.302c0-.277-.223-.5-.5-.5z"/></g>
</symbol>
<symbol id="android" viewBox="0 0 403 458"><defs><style><![CDATA[
    .fil0 {fill:none;fill-rule:nonzero}
   ]]></style></defs><g id="Layer_x0020_1"><path class="fil0" d="M368 146c-15 0-28 13-28 28v111c0 15 12 28 28 28 15 0 28-13 28-28V174c0-15-12-28-28-28zm-333 0c-15 0-28 13-28 28v111c0 15 12 28 28 28 15 0 28-13 28-28V174c0-15-12-28-28-28zm42 181c0 23 19 42 42 42h14v56c0 15 12 28 28 28 15 0 28-13 28-28v-56h28v56c0 15 12 28 28 28 15 0 28-13 28-28v-56h14c23 0 42-19 42-42V174H79v153zM253 46l18-34c1-2 0-4-1-5-2-1-4 0-5 1l-18 34c-14-5-29-8-45-8s-31 3-45 8L139 8c-1-2-3-2-5-1s-2 3-1 5l18 34c-39 18-68 55-73 100h248c-5-45-33-82-73-100zm-107 79c-11 0-20-9-20-20s9-20 20-20 20 9 20 20-9 20-20 20zm111 0c-11 0-20-9-20-20s9-20 20-20 20 9 20 20-9 20-20 20z" id="_161260352"/></g>
</symbol>
<symbol id="apple" viewBox="0 0 375 458"><defs><style><![CDATA[
    .fil0 {fill:none;fill-rule:nonzero}
   ]]></style></defs><g id="Layer_x0020_1"><path class="fil0" d="M309 243c-1-56 46-83 48-85-26-38-67-43-81-44-35-4-68 20-85 20-18 0-45-20-73-19-38 1-73 22-92 56-39 68-10 169 28 224 19 27 41 57 70 56 28-1 39-18 73-18s44 18 73 18c30-1 49-28 68-55 21-31 30-62 31-63-1 0-59-23-60-90zM253 78c16-19 26-45 23-71-22 1-49 15-65 34-14 17-27 43-24 69 25 2 50-13 66-31z" id="_160502144"/></g>
</symbol>
<symbol id="arrow" viewBox="0 0 222 264"><defs><style><![CDATA[
    .fil0 {fill:none}
   ]]></style></defs><g id="Layer_x0020_1"><path class="fil0" d="M0 264V0l220 131z" id="_153801904"/></g>
</symbol>
<symbol id="cloud-download" viewBox="0 0 32 32"><path d="M20.05 25.363l.756.756-4.775 4.774-4.774-4.775.756-.757L15.5 28.85V14.896h1.063V28.85l3.488-3.487zM26.175 9.57c0-.09.012-.17.012-.25 0-4.57-3.7-8.27-8.262-8.27-3.287 0-6.12 1.925-7.45 4.706C9.9 5.47 9.25 5.3 8.563 5.3c-2.112 0-3.862 1.537-4.2 3.55C1.85 9.713.038 12.094.038 14.9c0 3.53 2.862 6.394 6.394 6.394h6.938v-1.07H6.432c-2.938 0-5.325-2.393-5.325-5.33 0-2.275 1.45-4.3 3.606-5.044l.6-.206.106-.625c.262-1.545 1.586-2.663 3.15-2.663.5 0 .98.12 1.43.344l.975.488.47-.98c1.193-2.495 3.737-4.1 6.487-4.1 3.962.012 7.194 3.236 7.194 7.205 0 .02 0 .044-.006.07-.006.05-.006.105-.006.16l-.025 1.09 1.086.005c2.637.006 4.788 2.162 4.788 4.8 0 2.63-2.144 4.78-4.775 4.794h-7.495v1.07h7.494c3.224-.02 5.836-2.638 5.836-5.864 0-3.238-2.62-5.863-5.85-5.87z"/>
</symbol>
<symbol id="compass" viewBox="0 0 500 500"><defs><style><![CDATA[
    .fil0 {fill:none;fill-rule:nonzero}
   ]]></style></defs><g id="Layer_x0020_1"><path class="fil0" d="M252 0h-2C113 0 1 112 0 248c-1 137 110 245 248 252h2c137 0 249-112 250-248C501 115 390 0 252 0zm-2 485h-2C119 477 14 377 15 248 16 120 121 15 250 15h2c129 1 234 108 233 237-1 128-106 233-235 233z" id="_146927928"/><path class="fil0" d="M361 130l-153 73c-2 1-3 2-4 3l-75 150c-1 3-1 6 1 9 1 1 3 2 5 2 1 0 2 0 3-1l153-72c2-1 3-2 4-3l76-150c1-3 1-6-1-9-2-2-6-3-9-2zm-78 151l-130 62 64-128 130-62-64 128z" id="_146928432"/></g>
</symbol>
<symbol id="earphones" viewBox="0 0 417 500"><defs><style><![CDATA[
    .fil0 {fill:none;fill-rule:nonzero}
   ]]></style></defs><g id="Layer_x0020_1"><path class="fil0" d="M12 435h34s2 2 2 3v52c0 4 4 8 8 8s8-4 8-8v-52c0-1-3-3-3-3h34c4 0 9-3 9-8v-96h48v13c0 4 1 11 6 11h52c45 0 81-39 81-84s-36-84-81-84h-52c-4 0-6 6-6 11v13H95c-80 0-95 41-95 66v150c0 4 7 8 11 8zm157-232h42c36 0 65 32 65 68s-29 68-65 68h-42V202zm-16 112h-48v-88h48v88zM17 277c0-32 24-49 72-51v192H17V276zm204-114h42c4 0 10-3 10-7v-9h48v93c0 4 0 12 5 12h34s1-2 1-1v240c0 4 4 8 8 8s8-4 8-8V251c0-1-2 1-2 1h34c4 0 8-7 8-12V90c0-25-12-70-92-70h-53v-9c0-4-6-7-10-7h-42c-45 0-81 35-81 80s36 80 81 80zm180-74v146h-64V39c40 2 64 19 64 51zm-80-54v96h-48V35h48zM221 19h36v129h-36c-36 0-65-28-65-64s29-64 65-64z" id="_162004008"/></g>
</symbol>
<symbol id="face" viewBox="0 0 514 500"><defs><style><![CDATA[
    .fil0 {fill:none;fill-rule:nonzero}
   ]]></style></defs><g id="Layer_x0020_1"><path class="fil0" d="M257 0C119 0 7 112 7 250s112 250 250 250 250-112 250-250S395 0 257 0zM134 450c9-4 20-4 36-4h24c3 0 5-1 6-3l27-40c1-2 1-3 1-5 9 4 18 7 28 7s20-3 29-7c0 2 0 4 1 6l28 40c1 2 4 3 6 3h28c15 0 24 0 31 4-36 22-78 35-123 35s-87-13-123-35zm202-263c9 30 16 84-1 98-2 1-3 4-3 6 0 43-35 99-75 99s-75-55-75-99c0-1 0-2-1-3-23-52-4-100-3-100 0-1 1-2 1-3 0-26 5-45 63-45 1 0 3 0 4-1 17-10 33-16 47-16 16 0 30 7 39 19 8 12 10 27 5 40-1 2-1 3 0 5zm59 253c-13-10-27-9-45-9h-24l-25-36c-1-1-2-2-4-3 29-21 51-61 52-97 25-26 8-94 4-109 6-18 3-37-8-52-11-16-30-26-51-26-17 0-35 6-53 17-66 1-76 29-76 59-3 9-19 57 3 109 1 37 22 78 52 99-1 1-3 1-4 3l-25 36h-19c-20 0-37 0-51 10-59-43-97-112-97-190C24 122 129 16 259 16c129 0 235 105 235 235 0 78-38 147-97 190z" id="_149308960"/></g>
</symbol>
<symbol id="full_screen" viewBox="0 0 194 167"><defs><style><![CDATA[
    .fil0 {fill:none}
   ]]></style></defs><g id="Layer_x0020_1"><path class="fil0" d="M83 119L61 97l-27 27-21-21v64h64l-21-21z" id="_149439928"/><path class="fil0" d="M161 124l-28-27-22 22 27 27-20 21h63v-64z" id="_149439688"/><path class="fil0" d="M118 0l20 20-27 28 22 22 28-27 20 20V0z" id="_149440048"/><path class="fil0" d="M56 20L77 0H13v63l21-20 27 27 22-22z" id="_149440240"/></g>
</symbol>
<symbol id="like" viewBox="0 0 514 500"><defs><style><![CDATA[
    .fil0 {fill:none;fill-rule:nonzero}
   ]]></style></defs><g id="Layer_x0020_1"><path class="fil0" d="M208 492h211c21 0 38-7 46-19 12-17 12-35 11-44 9-11 15-27 15-48 0-8-1-14-3-19 7-9 14-22 15-40 1-14-2-25-6-33 5-8 10-19 10-34 1-48-43-68-73-70l-63 1c1-2 2-4 4-6 3-4 21-26 35-70 19-56-29-94-31-96l-3-2-1-1c-2-1-9-3-17-3s-15 2-21 6c-13 8-21 22-24 43-4 37-36 71-54 85-2 2-4 3-6 5-12 10-22 32-31 51l-4 8c-5 10-19 27-27 35h-16c-4-10-10-23-23-23H39c-17 0-32 16-32 33v211c0 16 15 29 32 29h169zm-45-235h34l2-2c9-7 26-28 33-42l4-8c8-16 18-38 27-46 1-1 3-2 5-4 5-4 54-43 60-96 2-15 7-26 16-31 4-2 8-3 13-3s9 1 11 2l1 1c4 4 40 35 25 78-14 42-31 63-33 66-4 5-11 18-7 28l2 4h6l71-1c20 1 58 15 57 54 0 14-5 23-10 29l-3 4 3 5c3 5 7 15 6 28-1 16-8 28-14 33l-4 4 2 5c3 6 4 10 4 17-1 23-8 34-13 40l-3 3 1 4c1 5 3 21-8 36-4 6-15 12-33 12H159V248c1 2 1 3 1 4l2 6zM23 463V252c0-8 8-17 16-17h105v242H39c-7 0-16-5-16-13z" id="_153944640"/></g>
</symbol>
<symbol id="location" viewBox="0 0 500 444"><defs><style><![CDATA[
    .fil0 {fill:none;fill-rule:nonzero}
   ]]></style></defs><g id="Layer_x0020_1"><path class="fil0" d="M292 114c0-23-19-42-42-42s-42 19-42 42 19 42 42 42 42-19 42-42zm-67 0c0-14 11-25 25-25s25 11 25 25-11 25-25 25-25-11-25-25z" id="_146859552"/><path class="fil0" d="M250 361l6-8c5-6 111-137 111-222C367 62 314 6 250 6S133 62 133 131c0 86 106 217 110 222l6 8zm0-339c55 0 100 49 100 109 0 68-77 173-100 203-23-30-100-135-100-203 0-60 45-109 100-109z" id="_146859528"/><path class="fil0" d="M69 273L4 390c-6 10-6 23 1 33 6 10 17 16 29 16h434c12 0 23-6 29-16s6-23 1-33l-65-117c-6-11-17-17-29-17h-60c-5 0-8 4-8 8 0 5 4 8 8 8h60c6 0 12 3 14 9l65 117c3 5 3 11 0 16s-8 8-14 8H35c-6 0-11-3-14-8s-3-11 0-16l65-117c3-5 8-9 14-9h60c5 0 8-4 8-8 0-5-4-8-8-8h-60c-12 0-23 7-29 17z" id="_146860056"/></g>
</symbol>
<symbol id="pointer" viewBox="0 0 375 500"><defs><style><![CDATA[
    .fil0 {fill:none;fill-rule:nonzero}
   ]]></style></defs><g id="Layer_x0020_1"><path class="fil0" d="M333 291h-3c-7 0-13 4-21 7v-1c0-19-15-36-34-36h-3c-7 0-14 4-21 8v-1c0-19-14-36-34-36h-3c-7 0-15 4-22 8v-86c0-19-14-33-33-33h-3c-19 0-38 14-38 33v221l-32-32c-7-6-15-10-24-10s-18 4-24 10l-2 2c-7 6-10 15-10 24s4 18 10 24l85 94c6 6 14 10 22 10h196c14 0 25-9 28-22h1V326c0-19-16-36-35-36zm20 178c0 8-7 14-15 14H142c-4 0-8-2-11-5l-86-94c-4-4-6-9-6-14s2-10 6-14l2-2c4-4 9-6 14-6s9 2 13 6l57 56V154c0-11 12-18 23-18h3c11 0 18 7 18 18v110h16c2-9 11-18 21-18h3c11 0 19 11 19 21v25h15c2-9 11-18 21-18h3c11 0 20 11 20 22v25l15 1c2-9 11-17 20-17h3c11 0 20 9 20 20v143z" id="_149683728"/><path class="fil0" d="M59 128H7v15h52z" id="_149683464"/><path class="fil0" d="M162 3h-15v52h15z" id="_149684136"/><path class="fil0" d="M102 78L64 41 53 51l39 38z" id="_149684472"/><path class="fil0" d="M258 143h51v-15h-51z" id="_149684616"/><path class="fil0" d="M260 51l-11-10-38 37 10 11z" id="_149684496"/></g>
</symbol>
  <symbol id="angle-right"><defs><style><![CDATA[
    .fil0 {fill:#ffffff;fill-rule:nonzero}
   ]]></style></defs><svg version="1.1" xmlns="http://www.w3.org/2000/svg" xmlns:xlink="http://www.w3.org/1999/xlink" width="32" height="32" viewBox="0 0 32 32"><g id="icomoon-ignore"></g>
<path d="M19.159 16.767l0.754-0.754-6.035-6.035-0.754 0.754 5.281 5.281-5.256 5.256 0.754 0.754 3.013-3.013z" fill="#000000"></path>
</svg></symbol>
<symbol id="windows" viewBox="0 0 458 458"><defs><style><![CDATA[
    .fil0 {fill:none;fill-rule:nonzero}
   ]]></style></defs><g id="Layer_x0020_1"><path class="fil0" d="M7 214V70l178-24v169H7zM214 41L451 7v207H214V41zm237 203v207l-237-33V244h237zM184 414L6 390V244h178v170z" id="_162212688"/></g>
</symbol></svg>
