<svg xmlns="http://www.w3.org/2000/svg" width="35.999" height="44" viewBox="0 0 375 458" shape-rendering="geometricPrecision" text-rendering="geometricPrecision" image-rendering="optimizeQuality" fill-rule="evenodd" clip-rule="evenodd"><defs><style><![CDATA[
    .fil0 {fill:#ffffff;}
   ]]></style></defs><g id="Layer_x0020_1"><path class="fil0" d="M309 243c-1-56 46-83 48-85-26-38-67-43-81-44-35-4-68 20-85 20-18 0-45-20-73-19-38 1-73 22-92 56-39 68-10 169 28 224 19 27 41 57 70 56 28-1 39-18 73-18s44 18 73 18c30-1 49-28 68-55 21-31 30-62 31-63-1 0-59-23-60-90zM253 78c16-19 26-45 23-71-22 1-49 15-65 34-14 17-27 43-24 69 25 2 50-13 66-31z" id="_160502144"/></g></svg>