<svg xmlns="http://www.w3.org/2000/svg" width="64" height="64" viewBox="0 0 438.533 438.533"><path d="M409.133 109.203c-19.608-33.592-46.205-60.19-79.798-79.796C295.735 9.8 259.058 0 219.273 0c-39.78 0-76.47 9.8-110.063 29.407-33.595 19.604-60.192 46.2-79.8 79.796C9.8 142.8 0 179.49 0 219.267c0 39.78 9.804 76.463 29.407 110.062 19.607 33.59 46.204 60.188 79.8 79.797 33.596 19.605 70.282 29.407 110.062 29.407s76.47-9.802 110.064-29.407c33.593-19.602 60.19-46.206 79.795-79.798 19.602-33.597 29.402-70.285 29.402-110.063 0-39.782-9.8-76.472-29.4-110.064zM361.74 259.517l-29.123 29.13c-3.62 3.613-7.9 5.423-12.847 5.423-4.948 0-9.236-1.81-12.847-5.424l-87.654-87.653-87.647 87.653c-3.616 3.614-7.898 5.424-12.847 5.424-4.95 0-9.233-1.81-12.85-5.424l-29.12-29.13c-3.617-3.606-5.426-7.897-5.426-12.846 0-4.942 1.81-9.227 5.426-12.848l129.62-129.616c3.617-3.617 7.898-5.424 12.847-5.424s9.238 1.807 12.846 5.424l129.62 129.616c3.613 3.62 5.424 7.905 5.424 12.848 0 4.948-1.807 9.24-5.424 12.847z" fill="#C69"/></svg>