<?xml version="1.0" encoding="utf-8"?>
<svg xmlns="http://www.w3.org/2000/svg">
<symbol id="email" viewBox="0 0 14 14"><g><path d="M7 9L5.268 7.484.316 11.73c.18.166.423.27.69.27h11.987c.267 0 .51-.104.688-.27L8.733 7.483 7 9z"/><path d="M13.684 2.27c-.18-.167-.422-.27-.69-.27H1.006c-.267 0-.51.104-.69.273L7 8l6.684-5.73zM0 2.878v8.308L4.833 7.08M9.167 7.08L14 11.185v-8.31"/></g>
</symbol>
<symbol id="facebook" viewBox="0 0 512 512"><g><path d="M256 0C114.61 0 0 114.61 0 256s114.61 256 256 256 256-114.61 256-256S397.39 0 256 0zm0 472c-119.297 0-216-96.703-216-216S136.703 40 256 40s216 96.703 216 216-96.703 216-216 216z"/><path d="M316.75 216.812h-44.53v-32.5c0-9.97 10.31-12.28 15.124-12.28h28.767v-43.86L283.14 128c-44.982 0-55.25 32.703-55.25 53.672v35.14h-32.64V262h32.64v122h44.33V262h37.655l6.875-45.188z"/></g>
</symbol>
<symbol id="linkedin" viewBox="0 0 512 512"><path d="M256 0C114.61 0 0 114.61 0 256s114.61 256 256 256 256-114.61 256-256S397.39 0 256 0zm0 472c-119.297 0-216-96.703-216-216S136.703 40 256 40s216 96.703 216 216-96.703 216-216 216z"/><path d="M128.094 383.89h48v-192h-48v192zm192-192c-41.094.69-61.312 30.642-64 32v-32h-48v192h48v-112c0-4.107 10.125-37 48-32 20.344 1.33 31.312 28.235 32 32v112l47.812.22V251.188c-1.687-19.188-11.28-58.61-63.812-59.297zm-168-64c-13.25 0-24 10.735-24 24s10.75 24 24 24 24-10.733 24-24-10.75-24-24-24z"/>
</symbol>
<symbol id="skype" viewBox="0 0 512 512"><path d="M487.654 288.97c1.406-10.4 2.215-20.973 2.215-31.736 0-129.153-105.27-233.872-235.103-233.872-12.904 0-25.555 1.06-37.866 3.08-22.07-14.384-48.34-22.767-76.61-22.767C62.765 3.675 0 66.483 0 143.98c0 28.2 8.3 54.395 22.59 76.39-1.925 12.017-2.91 24.323-2.91 36.86 0 129.175 105.218 233.88 235.086 233.88 14.657 0 28.927-1.428 42.796-3.934 21.55 13.37 46.934 21.148 74.145 21.148C449.21 508.327 512 445.504 512 368.014c-.004-29.294-8.96-56.53-24.346-79.044zM276.74 429.597c-74.705 3.894-109.664-12.637-141.69-42.69-35.764-33.566-21.397-71.855 7.74-73.802 29.123-1.942 46.608 33.015 62.15 42.736 15.525 9.69 74.595 31.76 105.794-3.907 33.977-38.828-22.594-58.92-64.06-65.002-59.203-8.765-133.95-40.79-128.135-103.906 5.815-63.074 53.58-95.414 103.85-99.976 64.076-5.817 105.79 9.707 138.785 37.86 38.148 32.53 17.508 68.894-6.8 71.82-24.212 2.91-51.403-53.504-104.79-54.352-55.028-.864-92.218 57.26-24.287 73.784 67.967 16.505 140.75 23.286 166.96 85.417 26.232 62.137-40.75 128.125-115.518 132.02z"/>
</symbol></svg>